<svg xmlns="http://www.w3.org/2000/svg" xmlns:xlink="http://www.w3.org/1999/xlink" width="100" height="100" viewBox="0 0 100 100"><rect width="100%" height="100%" fill="#FFFFFF"></rect><g transform="translate(50 50) scale(0.69 0.69) rotate(0) translate(-50 -50)" style="fill:#000000"><svg fill="#000000" xmlns="http://www.w3.org/2000/svg" viewBox="0 0 48 48" x="0px" y="0px"><title>6-Web Browser-Interface-Video</title><g data-name="6-Web Browser-Interface-Video"><path d="M41,13H7a3,3,0,0,0-3,3V36H6V16a1,1,0,0,1,1-1H41a1,1,0,0,1,1,1V36h2V16A3,3,0,0,0,41,13Z"></path><polygon points="18 37 16 37 16 39 4 39 4 41 16 41 16 43 18 43 18 41 44 41 44 39 18 39 18 37"></polygon><path d="M20,31a1,1,0,0,0,.447-.105l8-4a1,1,0,0,0,0-1.79l-8-4A1,1,0,0,0,19,22v8a1,1,0,0,0,1,1Zm1-7.382L25.764,26,21,28.382Z"></path><path d="M43,0H5A5.006,5.006,0,0,0,0,5V43a5.006,5.006,0,0,0,5,5H43a5.006,5.006,0,0,0,5-5V5A5.006,5.006,0,0,0,43,0Zm3,43a3,3,0,0,1-3,3H5a3,3,0,0,1-3-3V5A3,3,0,0,1,5,2H43a3,3,0,0,1,3,3Z"></path><rect x="4" y="8" width="40" height="2"></rect><rect x="5" y="4" width="2" height="2"></rect><rect x="9" y="4" width="2" height="2"></rect><rect x="41" y="4" width="2" height="2"></rect></g></svg></g></svg>